<svg xmlns="http://www.w3.org/2000/svg" xmlns:xlink="http://www.w3.org/1999/xlink" viewBox="0,0,256,256" width="500px" height="500px" fill-rule="nonzero"><g fill="#ffffff" fill-rule="nonzero" stroke="none" stroke-width="1" stroke-linecap="butt" stroke-linejoin="miter" stroke-miterlimit="10" stroke-dasharray="" stroke-dashoffset="0" font-family="none" font-weight="none" font-size="none" text-anchor="none" style="mix-blend-mode: normal"><g transform="scale(5.12,5.12)"><path d="M4.98438,5c-1.63672,0 -2.98437,1.34766 -2.98437,2.98438v34.03125c0,1.63672 1.34766,2.98438 2.98438,2.98438h40.03125c1.63672,0 2.98438,-1.34766 2.98438,-2.98437v-34.03125c0,-1.63672 -1.34766,-2.98437 -2.98437,-2.98437zM4.98438,7h40.03125c0.55469,0 0.98438,0.42969 0.98438,0.98438v3.01563h-42v-3.01562c0,-0.55469 0.42969,-0.98437 0.98438,-0.98437zM7,8c-0.55078,0 -1,0.44922 -1,1c0,0.55078 0.44922,1 1,1c0.55078,0 1,-0.44922 1,-1c0,-0.55078 -0.44922,-1 -1,-1zM10,8c-0.55078,0 -1,0.44922 -1,1c0,0.55078 0.44922,1 1,1c0.55078,0 1,-0.44922 1,-1c0,-0.55078 -0.44922,-1 -1,-1zM4,13h42v14h-42zM4,29h20v14h-19.01562c-0.55469,0 -0.98437,-0.42969 -0.98437,-0.98437zM26,29h20v13.01563c0,0.55469 -0.42969,0.98438 -0.98437,0.98438h-19.01562zM6,31v2h16v-2zM6,35v2h16v-2zM6,39v2h9v-2z"></path></g></g></svg>